<svg width="61" height="72" viewBox="0 0 61 72" fill="none" xmlns="http://www.w3.org/2000/svg">
<path d="M60.5 31.5C60.5 48.6362 47.0535 62.5 30.5 62.5C13.9465 62.5 0.5 48.6362 0.5 31.5C0.5 14.3638 13.9465 0.5 30.5 0.5C47.0535 0.5 60.5 14.3638 60.5 31.5Z" stroke="white"/>
<path d="M31.432 40.924L30.4881 40.5938L30.4856 40.6008L30.4833 40.6078L31.432 40.924ZM33.46 35.126L34.4039 35.4562L34.8874 34.0739L33.424 34.1266L33.46 35.126ZM17.6 35.698H16.6V36.7347L17.636 36.6973L17.6 35.698ZM17.6 30.862L17.636 29.8626L16.6 29.8253V30.862H17.6ZM33.46 31.434L33.424 32.4334L34.8831 32.486L34.4048 31.1065L33.46 31.434ZM31.432 25.584L30.4833 25.9003L30.4872 25.9115L31.432 25.584ZM31.224 24.986L30.2753 25.3022L30.2796 25.315L30.2842 25.3277L31.224 24.986ZM32.628 24.336L32.0398 25.1447L32.0524 25.1539L32.0653 25.1627L32.628 24.336ZM44.354 32.318L44.9251 31.4971L44.9167 31.4913L44.354 32.318ZM44.354 34.242L44.9142 35.0704L44.9315 35.0586L44.9484 35.0462L44.354 34.242ZM32.628 42.172L32.0678 41.3436L32.0536 41.3532L32.0398 41.3633L32.628 42.172ZM31.744 41.588C31.6696 41.588 31.8004 41.5691 31.9517 41.7078C32.1195 41.8617 32.12 42.0291 32.12 42.016H30.12C30.12 42.3843 30.2245 42.8377 30.6003 43.1822C30.9596 43.5116 31.4024 43.588 31.744 43.588V41.588ZM32.12 42.016C32.12 42.0287 32.1186 42.0229 32.1245 41.9945C32.1304 41.9665 32.1421 41.9235 32.1638 41.8637L30.2842 41.1803C30.1918 41.4344 30.12 41.7202 30.12 42.016H32.12ZM32.1638 41.8637C32.2364 41.664 32.3087 41.4561 32.3807 41.2402L30.4833 40.6078C30.4166 40.8079 30.3502 40.9987 30.2842 41.1803L32.1638 41.8637ZM32.3759 41.2542L34.4039 35.4562L32.5161 34.7958L30.4881 40.5938L32.3759 41.2542ZM33.424 34.1266L17.564 34.6986L17.636 36.6973L33.496 36.1253L33.424 34.1266ZM18.6 35.698V30.862H16.6V35.698H18.6ZM17.564 31.8613L33.424 32.4334L33.496 30.4346L17.636 29.8626L17.564 31.8613ZM34.4048 31.1065L32.3768 25.2565L30.4872 25.9115L32.5152 31.7615L34.4048 31.1065ZM32.3807 25.2678C32.3087 25.0519 32.2364 24.844 32.1638 24.6443L30.2842 25.3277C30.3502 25.5093 30.4166 25.7001 30.4833 25.9002L32.3807 25.2678ZM32.1727 24.6698C32.1467 24.5918 32.1321 24.5364 32.1245 24.5005C32.1164 24.462 32.12 24.4627 32.12 24.492H30.12C30.12 24.7747 30.1948 25.0606 30.2753 25.3022L32.1727 24.6698ZM32.12 24.492C32.12 24.4789 32.1195 24.6463 31.9517 24.8002C31.8004 24.9389 31.6696 24.92 31.744 24.92V22.92C31.4024 22.92 30.9596 22.9964 30.6003 23.3258C30.2245 23.6703 30.12 24.1237 30.12 24.492H32.12ZM31.744 24.92C31.6868 24.92 31.6532 24.9108 31.6503 24.91C31.6467 24.909 31.6609 24.9127 31.6952 24.9288C31.7664 24.9623 31.8796 25.0282 32.0398 25.1447L33.2162 23.5273C32.995 23.3664 32.7702 23.2243 32.5468 23.1192C32.3338 23.019 32.0551 22.92 31.744 22.92V24.92ZM32.0653 25.1627L43.7913 33.1447L44.9167 31.4913L33.1907 23.5093L32.0653 25.1627ZM43.7829 33.1389C43.9012 33.2212 43.9428 33.2776 43.9532 33.2944C43.9578 33.3018 43.9565 33.3015 43.9545 33.2947C43.9524 33.2875 43.952 33.2816 43.952 33.28H45.952C45.952 32.4844 45.4937 31.8927 44.9251 31.4971L43.7829 33.1389ZM43.952 33.28C43.952 33.2693 43.9538 33.2579 43.9565 33.2489C43.959 33.2405 43.9601 33.2415 43.9532 33.2526C43.9376 33.2777 43.8874 33.3433 43.7596 33.4378L44.9484 35.0462C45.486 34.6488 45.952 34.0649 45.952 33.28H43.952ZM43.7938 33.4136L32.0678 41.3436L33.1882 43.0004L44.9142 35.0704L43.7938 33.4136ZM32.0398 41.3633C31.8796 41.4798 31.7664 41.5457 31.6952 41.5792C31.6609 41.5953 31.6467 41.599 31.6503 41.598C31.6532 41.5972 31.6868 41.588 31.744 41.588V43.588C32.0551 43.588 32.3338 43.489 32.5468 43.3888C32.7702 43.2837 32.995 43.1416 33.2162 42.9807L32.0398 41.3633Z" fill="white"/>
</svg>
